<svg width="1400" height="70" viewBox="0 0 1400 70" xmlns="http://www.w3.org/2000/svg">
<defs>
<linearGradient id="bg-2" x1="0%" y1="0%" x2="100%" y2="100%">
        <stop offset="0%" stop-color="#6C63FF"/>
        <stop offset="50%" stop-color="#8E7CFF"/>
        <stop offset="100%" stop-color="#00C9A7"/>
    </linearGradient>
<radialGradient id="bubble-grad-2" cx="35%" cy="30%" r="70%">
        <stop offset="0%" stop-color="#ffffff" stop-opacity="0.55"/>
        <stop offset="45%" stop-color="#ffffff" stop-opacity="0.18"/>
        <stop offset="100%" stop-color="#ffffff" stop-opacity="0.03"/>
    </radialGradient>
<filter id="soft-2" x="-50%" y="-50%" width="200%" height="200%"><feGaussianBlur stdDeviation="1.2"/></filter>
</defs>
<rect width="1400" height="70" fill="url(#bg-2)"/>
<circle cx="1332.8" cy="-1.8" r="21.6" fill="url(#bubble-grad-2)" opacity="0.12" filter="url(#soft-2)"/>
<circle cx="1332.8" cy="-1.8" r="21.6" fill="none" stroke="#ffffff" stroke-width="1" opacity="0.32"/>
<circle cx="1325.2" cy="-9.3" r="3.9" fill="#ffffff" opacity="0.40"/>
<circle cx="429.5" cy="43.5" r="16.4" fill="url(#bubble-grad-2)" opacity="0.22" filter="url(#soft-2)"/>
<circle cx="429.5" cy="43.5" r="16.4" fill="none" stroke="#ffffff" stroke-width="1" opacity="0.27"/>
<circle cx="423.8" cy="37.7" r="3.0" fill="#ffffff" opacity="0.28"/>
<circle cx="550.2" cy="52.2" r="12.0" fill="url(#bubble-grad-2)" opacity="0.30" filter="url(#soft-2)"/>
<circle cx="550.2" cy="52.2" r="12.0" fill="none" stroke="#ffffff" stroke-width="1" opacity="0.34"/>
<circle cx="546.0" cy="48.0" r="2.2" fill="#ffffff" opacity="0.36"/>
<circle cx="373.8" cy="-0.9" r="12.3" fill="url(#bubble-grad-2)" opacity="0.11" filter="url(#soft-2)"/>
<circle cx="373.8" cy="-0.9" r="12.3" fill="none" stroke="#ffffff" stroke-width="1" opacity="0.24"/>
<circle cx="369.5" cy="-5.2" r="2.2" fill="#ffffff" opacity="0.31"/>
<circle cx="1251.1" cy="37.0" r="11.1" fill="url(#bubble-grad-2)" opacity="0.21" filter="url(#soft-2)"/>
<circle cx="1251.1" cy="37.0" r="11.1" fill="none" stroke="#ffffff" stroke-width="1" opacity="0.20"/>
<circle cx="1247.2" cy="33.1" r="2.0" fill="#ffffff" opacity="0.25"/>
<circle cx="189.2" cy="35.8" r="10.1" fill="url(#bubble-grad-2)" opacity="0.30" filter="url(#soft-2)"/>
<circle cx="189.2" cy="35.8" r="10.1" fill="none" stroke="#ffffff" stroke-width="1" opacity="0.28"/>
<circle cx="185.6" cy="32.2" r="1.8" fill="#ffffff" opacity="0.29"/>
<circle cx="1119.1" cy="54.3" r="20.5" fill="url(#bubble-grad-2)" opacity="0.28" filter="url(#soft-2)"/>
<circle cx="1119.1" cy="54.3" r="20.5" fill="none" stroke="#ffffff" stroke-width="1" opacity="0.30"/>
<circle cx="1111.9" cy="47.1" r="3.7" fill="#ffffff" opacity="0.41"/>
<circle cx="1376.4" cy="70.3" r="10.6" fill="url(#bubble-grad-2)" opacity="0.13" filter="url(#soft-2)"/>
<circle cx="1376.4" cy="70.3" r="10.6" fill="none" stroke="#ffffff" stroke-width="1" opacity="0.30"/>
<circle cx="1372.7" cy="66.6" r="1.9" fill="#ffffff" opacity="0.39"/>
<circle cx="742.7" cy="34.2" r="12.6" fill="url(#bubble-grad-2)" opacity="0.28" filter="url(#soft-2)"/>
<circle cx="742.7" cy="34.2" r="12.6" fill="none" stroke="#ffffff" stroke-width="1" opacity="0.25"/>
<circle cx="738.3" cy="29.8" r="2.3" fill="#ffffff" opacity="0.42"/>
<circle cx="1238.4" cy="65.5" r="10.6" fill="url(#bubble-grad-2)" opacity="0.19" filter="url(#soft-2)"/>
<circle cx="1238.4" cy="65.5" r="10.6" fill="none" stroke="#ffffff" stroke-width="1" opacity="0.26"/>
<circle cx="1234.7" cy="61.8" r="1.9" fill="#ffffff" opacity="0.43"/>
<circle cx="681.3" cy="15.5" r="5.6" fill="#ffffff" opacity="0.23"/>
<circle cx="232.5" cy="63.6" r="5.5" fill="#ffffff" opacity="0.22"/>
<circle cx="433.4" cy="67.0" r="6.6" fill="#ffffff" opacity="0.33"/>
<circle cx="724.8" cy="45.6" r="4.5" fill="#ffffff" opacity="0.30"/>
<circle cx="290.9" cy="35.8" r="3.6" fill="#ffffff" opacity="0.38"/>
<circle cx="105.5" cy="57.4" r="5.1" fill="#ffffff" opacity="0.33"/>
<circle cx="268.0" cy="52.1" r="6.5" fill="#ffffff" opacity="0.16"/>
<circle cx="382.3" cy="15.9" r="5.3" fill="#ffffff" opacity="0.37"/>
<circle cx="731.3" cy="59.8" r="2.5" fill="#ffffff" opacity="0.21"/>
<circle cx="1232.8" cy="29.6" r="3.1" fill="#ffffff" opacity="0.33"/>
<circle cx="507.3" cy="12.0" r="2.2" fill="#ffffff" opacity="0.32"/>
<circle cx="1336.4" cy="1.8" r="2.4" fill="#ffffff" opacity="0.33"/>
<circle cx="358.0" cy="56.9" r="2.1" fill="#ffffff" opacity="0.19"/>
<circle cx="968.1" cy="27.0" r="2.9" fill="#ffffff" opacity="0.16"/>
<circle cx="212.0" cy="2.5" r="7.0" fill="#ffffff" opacity="0.24"/>
<circle cx="1039.4" cy="7.9" r="5.1" fill="#ffffff" opacity="0.23"/>
<circle cx="628.1" cy="53.6" r="2.2" fill="#ffffff" opacity="0.33"/>
<circle cx="1057.9" cy="60.4" r="6.5" fill="#ffffff" opacity="0.33"/>
<circle cx="315.7" cy="46.3" r="4.4" fill="#ffffff" opacity="0.23"/>
<circle cx="627.0" cy="61.2" r="2.5" fill="#ffffff" opacity="0.18"/>
<circle cx="550.1" cy="36.0" r="4.9" fill="#ffffff" opacity="0.19"/>
<circle cx="362.7" cy="42.4" r="6.8" fill="#ffffff" opacity="0.25"/>
<circle cx="781.1" cy="9.8" r="2.1" fill="#ffffff" opacity="0.16"/>
<circle cx="225.6" cy="6.7" r="2.2" fill="#ffffff" opacity="0.31"/>
<circle cx="1376.9" cy="65.4" r="4.5" fill="#ffffff" opacity="0.40"/>
<circle cx="622.6" cy="17.6" r="3.2" fill="#ffffff" opacity="0.30"/>
<circle cx="1120.3" cy="49.7" r="5.1" fill="#ffffff" opacity="0.21"/>
<circle cx="736.7" cy="0.3" r="4.1" fill="#ffffff" opacity="0.16"/>
<circle cx="155.6" cy="50.7" r="4.0" fill="#ffffff" opacity="0.21"/>
<circle cx="254.5" cy="16.2" r="2.5" fill="#ffffff" opacity="0.20"/>
</svg>