<svg width="1400" height="70" viewBox="0 0 1400 70" xmlns="http://www.w3.org/2000/svg">
<defs>
<linearGradient id="bg-3" x1="0%" y1="0%" x2="100%" y2="100%">
        <stop offset="0%" stop-color="#00C9A7"/>
        <stop offset="50%" stop-color="#5FD6C4"/>
        <stop offset="100%" stop-color="#6C63FF"/>
    </linearGradient>
<radialGradient id="bubble-grad-3" cx="35%" cy="30%" r="70%">
        <stop offset="0%" stop-color="#ffffff" stop-opacity="0.55"/>
        <stop offset="45%" stop-color="#ffffff" stop-opacity="0.18"/>
        <stop offset="100%" stop-color="#ffffff" stop-opacity="0.03"/>
    </radialGradient>
<filter id="soft-3" x="-50%" y="-50%" width="200%" height="200%"><feGaussianBlur stdDeviation="1.2"/></filter>
</defs>
<rect width="1400" height="70" fill="url(#bg-3)"/>
<circle cx="762.1" cy="25.2" r="8.5" fill="url(#bubble-grad-3)" opacity="0.22" filter="url(#soft-3)"/>
<circle cx="762.1" cy="25.2" r="8.5" fill="none" stroke="#ffffff" stroke-width="1" opacity="0.28"/>
<circle cx="759.2" cy="22.2" r="1.5" fill="#ffffff" opacity="0.26"/>
<circle cx="1173.4" cy="17.5" r="4.4" fill="url(#bubble-grad-3)" opacity="0.15" filter="url(#soft-3)"/>
<circle cx="1173.4" cy="17.5" r="4.4" fill="none" stroke="#ffffff" stroke-width="1" opacity="0.35"/>
<circle cx="1171.8" cy="16.0" r="0.8" fill="#ffffff" opacity="0.34"/>
<circle cx="666.6" cy="46.4" r="19.4" fill="url(#bubble-grad-3)" opacity="0.13" filter="url(#soft-3)"/>
<circle cx="666.6" cy="46.4" r="19.4" fill="none" stroke="#ffffff" stroke-width="1" opacity="0.28"/>
<circle cx="659.8" cy="39.6" r="3.5" fill="#ffffff" opacity="0.42"/>
<circle cx="1039.7" cy="48.4" r="13.7" fill="url(#bubble-grad-3)" opacity="0.11" filter="url(#soft-3)"/>
<circle cx="1039.7" cy="48.4" r="13.7" fill="none" stroke="#ffffff" stroke-width="1" opacity="0.30"/>
<circle cx="1034.9" cy="43.6" r="2.5" fill="#ffffff" opacity="0.37"/>
<circle cx="40.7" cy="62.7" r="9.7" fill="url(#bubble-grad-3)" opacity="0.19" filter="url(#soft-3)"/>
<circle cx="40.7" cy="62.7" r="9.7" fill="none" stroke="#ffffff" stroke-width="1" opacity="0.29"/>
<circle cx="37.3" cy="59.3" r="1.7" fill="#ffffff" opacity="0.43"/>
<circle cx="1293.9" cy="26.6" r="17.2" fill="url(#bubble-grad-3)" opacity="0.26" filter="url(#soft-3)"/>
<circle cx="1293.9" cy="26.6" r="17.2" fill="none" stroke="#ffffff" stroke-width="1" opacity="0.24"/>
<circle cx="1287.9" cy="20.5" r="3.1" fill="#ffffff" opacity="0.44"/>
<circle cx="131.6" cy="5.1" r="20.2" fill="url(#bubble-grad-3)" opacity="0.14" filter="url(#soft-3)"/>
<circle cx="131.6" cy="5.1" r="20.2" fill="none" stroke="#ffffff" stroke-width="1" opacity="0.34"/>
<circle cx="124.5" cy="-2.0" r="3.6" fill="#ffffff" opacity="0.34"/>
<circle cx="419.6" cy="35.6" r="15.6" fill="url(#bubble-grad-3)" opacity="0.18" filter="url(#soft-3)"/>
<circle cx="419.6" cy="35.6" r="15.6" fill="none" stroke="#ffffff" stroke-width="1" opacity="0.22"/>
<circle cx="414.1" cy="30.1" r="2.8" fill="#ffffff" opacity="0.37"/>
<circle cx="1269.5" cy="49.4" r="14.8" fill="url(#bubble-grad-3)" opacity="0.29" filter="url(#soft-3)"/>
<circle cx="1269.5" cy="49.4" r="14.8" fill="none" stroke="#ffffff" stroke-width="1" opacity="0.32"/>
<circle cx="1264.3" cy="44.2" r="2.7" fill="#ffffff" opacity="0.45"/>
<circle cx="225.0" cy="63.8" r="16.4" fill="url(#bubble-grad-3)" opacity="0.29" filter="url(#soft-3)"/>
<circle cx="225.0" cy="63.8" r="16.4" fill="none" stroke="#ffffff" stroke-width="1" opacity="0.33"/>
<circle cx="219.3" cy="58.1" r="3.0" fill="#ffffff" opacity="0.36"/>
<circle cx="295.6" cy="58.2" r="5.6" fill="#ffffff" opacity="0.29"/>
<circle cx="88.8" cy="59.8" r="3.4" fill="#ffffff" opacity="0.40"/>
<circle cx="1120.8" cy="28.7" r="2.4" fill="#ffffff" opacity="0.19"/>
<circle cx="1076.3" cy="61.1" r="3.5" fill="#ffffff" opacity="0.16"/>
<circle cx="62.9" cy="50.3" r="5.1" fill="#ffffff" opacity="0.23"/>
<circle cx="1372.9" cy="35.4" r="6.4" fill="#ffffff" opacity="0.40"/>
<circle cx="107.8" cy="42.0" r="3.5" fill="#ffffff" opacity="0.16"/>
<circle cx="571.1" cy="42.7" r="3.0" fill="#ffffff" opacity="0.19"/>
<circle cx="1214.9" cy="22.0" r="2.2" fill="#ffffff" opacity="0.39"/>
<circle cx="528.9" cy="32.2" r="6.5" fill="#ffffff" opacity="0.28"/>
<circle cx="833.9" cy="39.1" r="5.2" fill="#ffffff" opacity="0.31"/>
<circle cx="709.8" cy="30.2" r="6.7" fill="#ffffff" opacity="0.33"/>
<circle cx="421.5" cy="68.4" r="3.2" fill="#ffffff" opacity="0.28"/>
<circle cx="16.0" cy="29.1" r="4.7" fill="#ffffff" opacity="0.29"/>
<circle cx="862.1" cy="44.3" r="2.1" fill="#ffffff" opacity="0.17"/>
<circle cx="652.8" cy="47.5" r="5.1" fill="#ffffff" opacity="0.24"/>
<circle cx="1033.2" cy="1.6" r="5.5" fill="#ffffff" opacity="0.17"/>
<circle cx="1348.6" cy="17.6" r="5.4" fill="#ffffff" opacity="0.26"/>
<circle cx="448.0" cy="25.5" r="5.0" fill="#ffffff" opacity="0.23"/>
<circle cx="833.9" cy="21.0" r="3.8" fill="#ffffff" opacity="0.24"/>
<circle cx="37.7" cy="39.8" r="5.9" fill="#ffffff" opacity="0.33"/>
<circle cx="311.6" cy="56.3" r="3.6" fill="#ffffff" opacity="0.21"/>
<circle cx="609.3" cy="48.9" r="2.9" fill="#ffffff" opacity="0.18"/>
<circle cx="467.3" cy="58.3" r="3.6" fill="#ffffff" opacity="0.26"/>
<circle cx="237.0" cy="23.6" r="6.3" fill="#ffffff" opacity="0.31"/>
<circle cx="631.5" cy="15.8" r="6.4" fill="#ffffff" opacity="0.18"/>
<circle cx="267.1" cy="56.5" r="4.6" fill="#ffffff" opacity="0.36"/>
<circle cx="390.0" cy="56.5" r="2.9" fill="#ffffff" opacity="0.31"/>
<circle cx="483.4" cy="9.1" r="6.0" fill="#ffffff" opacity="0.22"/>
<circle cx="379.6" cy="24.2" r="6.0" fill="#ffffff" opacity="0.25"/>
</svg>